<svg xmlns="http://www.w3.org/2000/svg" xmlns:xlink="http://www.w3.org/1999/xlink" width="500" zoomAndPan="magnify" viewBox="0 0 375 374.999991" height="500" preserveAspectRatio="xMidYMid meet" version="1.0"><defs><g/><clipPath id="1013d09bfe"><path d="M 136.480469 100 L 187 100 L 187 209 L 136.480469 209 Z M 136.480469 100 " clip-rule="nonzero"/></clipPath></defs><rect x="-37.5" width="450" fill="#ffffff" y="-37.499999" height="449.999989" fill-opacity="1"/><rect x="-37.5" width="450" fill="#ffffff" y="-37.499999" height="449.999989" fill-opacity="1"/><g clip-path="url(#1013d09bfe)"><path fill="#004aad" d="M 174.09375 151.199219 L 187 158.664062 L 187 107.496094 L 175.617188 100.917969 L 163.734375 107.761719 L 163.734375 121.554688 L 160.519531 123.414062 L 160.519531 109.621094 L 150.042969 115.679688 L 150.042969 130.257812 L 162.160156 137.238281 L 174.0625 130.359375 L 174.0625 117.472656 L 177.277344 115.613281 L 177.277344 132.21875 L 163.734375 140.035156 L 163.734375 153.742188 L 160.519531 155.601562 L 160.519531 140.015625 L 148.6875 133.171875 L 136.5 140.199219 L 136.5 152.019531 L 150.042969 144.203125 L 150.042969 147.917969 L 136.5 155.734375 L 136.5 169.058594 L 148.6875 176.085938 L 158.746094 170.28125 L 149.207031 164.757812 L 149.207031 161.058594 L 177.277344 177.257812 L 177.277344 196.375 L 174.0625 194.515625 L 174.0625 179.117188 L 161.960938 172.136719 L 150.042969 179.015625 L 150.042969 193.144531 L 160.519531 199.1875 L 160.519531 183.367188 L 163.734375 185.226562 L 163.734375 201.042969 L 175.902344 208.074219 L 187 201.664062 L 187 162.378906 L 174.09375 154.914062 Z M 174.09375 151.199219 " fill-opacity="1" fill-rule="evenodd"/></g><path fill="#38b6ff" d="M 190.316406 111.480469 L 190.316406 201.3125 L 193.613281 203.238281 L 198.765625 206.199219 C 197.929688 209.113281 199.152344 212.34375 201.898438 213.914062 C 205.144531 215.789062 209.277344 214.6875 211.152344 211.4375 C 213.011719 208.207031 211.90625 204.058594 208.675781 202.183594 C 205.929688 200.609375 202.535156 201.160156 200.425781 203.335938 L 193.613281 199.402344 L 193.613281 109.570312 L 200.425781 105.636719 C 202.535156 107.828125 205.929688 108.382812 208.675781 106.792969 C 211.90625 104.917969 213.011719 100.78125 211.152344 97.535156 C 209.277344 94.304688 205.144531 93.199219 201.898438 95.058594 C 199.152344 96.648438 197.929688 99.863281 198.765625 102.773438 L 193.613281 105.753906 L 190.316406 107.664062 Z M 203.90625 210.433594 C 202.601562 209.664062 202.148438 207.992188 202.917969 206.683594 C 203.671875 205.378906 205.34375 204.925781 206.652344 205.679688 C 207.972656 206.433594 208.410156 208.109375 207.65625 209.429688 C 206.902344 210.734375 205.226562 211.1875 203.90625 210.433594 Z M 202.917969 102.304688 C 202.148438 100.984375 202.601562 99.308594 203.90625 98.558594 C 205.226562 97.804688 206.902344 98.253906 207.65625 99.5625 C 208.410156 100.867188 207.972656 102.539062 206.652344 103.292969 C 205.34375 104.0625 203.671875 103.613281 202.917969 102.304688 Z M 202.917969 102.304688 " fill-opacity="1" fill-rule="evenodd"/><path fill="#38b6ff" d="M 205.34375 136.351562 L 197.175781 136.351562 L 197.175781 139.648438 L 206.71875 139.648438 L 210.03125 136.351562 L 214.082031 132.300781 L 231.808594 132.300781 L 239.355469 139.847656 C 237.800781 142.445312 238.136719 145.875 240.378906 148.117188 C 243.023438 150.761719 247.324219 150.761719 249.96875 148.117188 C 252.613281 145.472656 252.613281 141.1875 249.96875 138.542969 C 247.726562 136.300781 244.296875 135.949219 241.699219 137.507812 L 236.476562 132.300781 L 233.179688 128.988281 L 212.710938 128.988281 L 209.414062 132.300781 Z M 243.242188 141.390625 C 244.3125 140.316406 246.035156 140.316406 247.105469 141.390625 C 248.179688 142.460938 248.179688 144.203125 247.105469 145.257812 C 246.035156 146.328125 244.3125 146.328125 243.242188 145.257812 C 242.167969 144.203125 242.167969 142.460938 243.242188 141.390625 Z M 243.242188 141.390625 " fill-opacity="1" fill-rule="evenodd"/><path fill="#004aad" d="M 197.175781 122.894531 L 201.5625 122.894531 L 208.761719 115.695312 L 214.03125 115.695312 C 214.785156 118.640625 217.445312 120.820312 220.609375 120.820312 C 224.34375 120.820312 227.390625 117.789062 227.390625 114.039062 C 227.390625 110.308594 224.34375 107.277344 220.609375 107.277344 C 217.445312 107.277344 214.785156 109.453125 214.03125 112.382812 L 207.386719 112.382812 L 204.074219 115.695312 L 200.191406 119.597656 L 197.175781 119.597656 Z M 217.867188 114.039062 C 217.867188 112.53125 219.105469 111.3125 220.609375 111.3125 C 222.117188 111.3125 223.355469 112.53125 223.355469 114.039062 C 223.355469 115.5625 222.117188 116.785156 220.609375 116.785156 C 219.105469 116.785156 217.867188 115.5625 217.867188 114.039062 Z M 217.867188 114.039062 " fill-opacity="1" fill-rule="evenodd"/><path fill="#38b6ff" d="M 202.046875 169.324219 L 197.175781 169.324219 L 197.175781 172.640625 L 205.34375 172.640625 L 209.414062 176.691406 L 212.710938 179.988281 L 233.179688 179.988281 L 241.699219 171.46875 C 244.296875 173.023438 247.726562 172.691406 249.96875 170.445312 C 252.613281 167.800781 252.613281 163.515625 249.96875 160.871094 C 247.324219 158.226562 243.023438 158.226562 240.378906 160.871094 C 238.136719 163.117188 237.800781 166.53125 239.355469 169.125 L 231.808594 176.691406 L 214.082031 176.691406 L 210.03125 172.640625 L 206.71875 169.324219 Z M 247.105469 167.601562 C 246.035156 168.671875 244.3125 168.671875 243.242188 167.601562 C 242.167969 166.53125 242.167969 164.789062 243.242188 163.71875 C 244.3125 162.648438 246.035156 162.648438 247.105469 163.71875 C 248.179688 164.789062 248.179688 166.53125 247.105469 167.601562 Z M 247.105469 167.601562 " fill-opacity="1" fill-rule="evenodd"/><path fill="#004aad" d="M 197.175781 156.152344 L 219.972656 156.152344 C 220.710938 159.082031 223.371094 161.257812 226.535156 161.257812 C 230.285156 161.257812 233.316406 158.226562 233.316406 154.496094 C 233.316406 150.746094 230.285156 147.714844 226.535156 147.714844 C 223.371094 147.714844 220.710938 149.890625 219.972656 152.839844 L 197.175781 152.839844 Z M 223.808594 154.496094 C 223.808594 152.972656 225.03125 151.75 226.535156 151.75 C 228.058594 151.75 229.28125 152.972656 229.28125 154.496094 C 229.28125 156 228.058594 157.222656 226.535156 157.222656 C 225.03125 157.222656 223.808594 156 223.808594 154.496094 Z M 223.808594 154.496094 " fill-opacity="1" fill-rule="evenodd"/><path fill="#004aad" d="M 204.859375 189.394531 L 201.5625 186.082031 L 197.175781 186.082031 L 197.175781 189.394531 L 200.191406 189.394531 L 207.386719 196.589844 L 214.03125 196.589844 C 214.785156 199.539062 217.445312 201.714844 220.609375 201.714844 C 224.34375 201.714844 227.390625 198.683594 227.390625 194.933594 C 227.390625 191.203125 224.34375 188.171875 220.609375 188.171875 C 217.445312 188.171875 214.785156 190.347656 214.03125 193.277344 L 208.761719 193.277344 Z M 220.609375 197.679688 C 219.105469 197.679688 217.867188 196.457031 217.867188 194.933594 C 217.867188 193.429688 219.105469 192.207031 220.609375 192.207031 C 222.117188 192.207031 223.355469 193.429688 223.355469 194.933594 C 223.355469 196.457031 222.117188 197.679688 220.609375 197.679688 Z M 220.609375 197.679688 " fill-opacity="1" fill-rule="evenodd"/><g fill="#004aad" fill-opacity="1"><g transform="translate(128.822425, 251.850701)"><g><path d="M 13.96875 -3.0625 C 13.96875 -2.425781 13.71875 -1.957031 13.21875 -1.65625 L 11.078125 -0.296875 C 10.804688 -0.0976562 10.472656 0 10.078125 0 L 2.578125 0 L 2.578125 -20.984375 C 2.578125 -21.617188 2.828125 -22.085938 3.328125 -22.390625 L 5.46875 -23.75 C 5.738281 -23.945312 6.070312 -24.046875 6.46875 -24.046875 L 13.96875 -24.046875 Z M 13.96875 -3.0625 "/></g></g></g><g fill="#004aad" fill-opacity="1"><g transform="translate(145.370386, 251.850701)"><g><path d="M 9.15625 0 C 8.789062 0 8.453125 -0.0390625 8.140625 -0.125 C 7.835938 -0.21875 7.550781 -0.359375 7.28125 -0.546875 L 3.0625 -3.21875 C 2.625 -3.53125 2.28125 -3.925781 2.03125 -4.40625 C 1.78125 -4.894531 1.65625 -5.394531 1.65625 -5.90625 L 1.65625 -17.0625 C 1.65625 -19.445312 2.460938 -21.207031 4.078125 -22.34375 C 5.691406 -23.476562 7.878906 -24.046875 10.640625 -24.046875 L 25.375 -24.046875 C 25.75 -24.046875 26.09375 -24 26.40625 -23.90625 C 26.726562 -23.820312 27.015625 -23.6875 27.265625 -23.5 L 31.5 -20.90625 C 31.925781 -20.582031 32.273438 -20.179688 32.546875 -19.703125 C 32.816406 -19.222656 32.953125 -18.703125 32.953125 -18.140625 L 32.953125 -6.984375 C 32.953125 -4.585938 32.140625 -2.820312 30.515625 -1.6875 C 28.890625 -0.5625 26.6875 0 23.90625 0 Z M 13.1875 -7.609375 C 13.1875 -7.117188 13.363281 -6.691406 13.71875 -6.328125 C 14.082031 -5.972656 14.519531 -5.796875 15.03125 -5.796875 L 19.546875 -5.796875 C 20.035156 -5.796875 20.457031 -5.972656 20.8125 -6.328125 C 21.164062 -6.691406 21.34375 -7.117188 21.34375 -7.609375 L 21.34375 -16.4375 C 21.34375 -16.957031 21.164062 -17.390625 20.8125 -17.734375 C 20.457031 -18.078125 20.019531 -18.25 19.5 -18.25 L 15 -18.25 C 14.507812 -18.25 14.082031 -18.078125 13.71875 -17.734375 C 13.363281 -17.390625 13.1875 -16.957031 13.1875 -16.4375 Z M 13.1875 -7.609375 "/></g></g></g><g fill="#004aad" fill-opacity="1"><g transform="translate(179.980739, 251.850701)"><g><path d="M 1.03125 -18.25 L 1.03125 -24.046875 L 32.4375 -24.046875 L 32.4375 -18.25 L 23.015625 -18.25 L 23.015625 -3.0625 C 23.015625 -2.425781 22.765625 -1.957031 22.265625 -1.65625 L 20.125 -0.296875 C 19.851562 -0.0976562 19.523438 0 19.140625 0 L 10.453125 0 L 10.453125 -18.25 Z M 1.03125 -18.25 "/></g></g></g><g fill="#004aad" fill-opacity="1"><g transform="translate(213.446031, 251.850701)"><g><path d="M 31.0625 -15.109375 L 31.0625 -7.015625 C 31.0625 -6.472656 30.9375 -5.976562 30.6875 -5.53125 C 30.445312 -5.09375 30.117188 -4.710938 29.703125 -4.390625 L 24.265625 -0.546875 C 24.023438 -0.359375 23.75 -0.21875 23.4375 -0.125 C 23.125 -0.0390625 22.796875 0 22.453125 0 L 1.65625 0 L 1.65625 -5.796875 L 17.6875 -5.796875 C 18.207031 -5.796875 18.640625 -5.972656 18.984375 -6.328125 C 19.328125 -6.691406 19.5 -7.117188 19.5 -7.609375 L 19.5 -8.9375 L 1.65625 -8.9375 L 1.65625 -17.03125 C 1.65625 -18.164062 2.140625 -19.078125 3.109375 -19.765625 L 8.5 -23.5 C 8.769531 -23.6875 9.054688 -23.820312 9.359375 -23.90625 C 9.671875 -24 9.988281 -24.046875 10.3125 -24.046875 L 31.0625 -24.046875 L 31.0625 -18.25 L 15.109375 -18.25 C 14.585938 -18.25 14.140625 -18.078125 13.765625 -17.734375 C 13.398438 -17.390625 13.21875 -16.957031 13.21875 -16.4375 L 13.21875 -15.109375 Z M 31.0625 -15.109375 "/></g></g></g></svg>