<svg xmlns="http://www.w3.org/2000/svg" xmlns:xlink="http://www.w3.org/1999/xlink" width="500" zoomAndPan="magnify" viewBox="0 0 375 374.999991" height="500" preserveAspectRatio="xMidYMid meet" version="1.0"><defs><clipPath id="7ee53a4b39"><path d="M 59.753906 61 L 171 61 L 171 297 L 59.753906 297 Z M 59.753906 61 " clip-rule="nonzero"/></clipPath></defs><rect x="-37.5" width="450" fill="#ffffff" y="-37.499999" height="449.999989" fill-opacity="1"/><rect x="-37.5" width="450" fill="#ffffff" y="-37.499999" height="449.999989" fill-opacity="1"/><g clip-path="url(#7ee53a4b39)"><path fill="#004aad" d="M 142.488281 171.871094 L 170.871094 188.292969 L 170.871094 75.746094 L 145.835938 61.277344 L 119.699219 76.335938 L 119.699219 106.671875 L 112.628906 110.757812 L 112.628906 80.421875 L 89.582031 93.75 L 89.582031 125.816406 L 116.238281 141.167969 L 142.414062 126.035156 L 142.414062 97.6875 L 149.484375 93.601562 L 149.484375 130.121094 L 119.699219 147.316406 L 119.699219 177.46875 L 112.628906 181.554688 L 112.628906 147.277344 L 86.601562 132.222656 L 59.800781 147.683594 L 59.800781 173.675781 L 89.582031 156.484375 L 89.582031 164.65625 L 59.800781 181.847656 L 59.800781 211.152344 L 86.601562 226.617188 L 108.726562 213.839844 L 87.742188 201.691406 L 87.742188 193.554688 L 149.484375 229.191406 L 149.484375 271.238281 L 142.414062 267.148438 L 142.414062 233.28125 L 115.796875 217.925781 L 89.582031 233.058594 L 89.582031 264.132812 L 112.628906 277.421875 L 112.628906 242.632812 L 119.699219 246.71875 L 119.699219 281.507812 L 146.464844 296.96875 L 170.871094 282.871094 L 170.871094 196.464844 L 142.488281 180.042969 Z M 142.488281 171.871094 " fill-opacity="1" fill-rule="evenodd"/></g><path fill="#38b6ff" d="M 178.160156 84.507812 L 178.160156 282.097656 L 185.414062 286.332031 L 196.753906 292.847656 C 194.914062 299.253906 197.601562 306.359375 203.636719 309.820312 C 210.78125 313.941406 219.875 311.511719 223.996094 304.371094 C 228.082031 297.265625 225.652344 288.136719 218.546875 284.011719 C 212.511719 280.550781 205.035156 281.765625 200.398438 286.550781 L 185.414062 277.898438 L 185.414062 80.3125 L 200.398438 71.660156 C 205.035156 76.484375 212.511719 77.699219 218.546875 74.199219 C 225.652344 70.078125 228.082031 60.984375 223.996094 53.839844 C 219.875 46.734375 210.78125 44.304688 203.636719 48.390625 C 197.601562 51.890625 194.914062 58.957031 196.753906 65.363281 L 185.414062 71.917969 L 178.160156 76.113281 Z M 208.054688 302.160156 C 205.183594 300.46875 204.191406 296.785156 205.882812 293.914062 C 207.539062 291.042969 211.222656 290.050781 214.09375 291.707031 C 217.003906 293.363281 217.960938 297.042969 216.300781 299.953125 C 214.644531 302.824219 210.964844 303.816406 208.054688 302.160156 Z M 205.882812 64.332031 C 204.191406 61.425781 205.183594 57.742188 208.054688 56.085938 C 210.964844 54.429688 214.644531 55.425781 216.300781 58.296875 C 217.960938 61.167969 217.003906 64.847656 214.09375 66.503906 C 211.222656 68.199219 207.539062 67.203125 205.882812 64.332031 Z M 205.882812 64.332031 " fill-opacity="1" fill-rule="evenodd"/><path fill="#38b6ff" d="M 211.222656 139.214844 L 193.257812 139.214844 L 193.257812 146.46875 L 214.242188 146.46875 L 221.53125 139.214844 L 230.441406 130.308594 L 269.425781 130.308594 L 286.03125 146.910156 C 282.605469 152.617188 283.34375 160.164062 288.277344 165.097656 C 294.09375 170.914062 303.554688 170.914062 309.371094 165.097656 C 315.1875 159.28125 315.1875 149.855469 309.371094 144.039062 C 304.4375 139.105469 296.890625 138.332031 291.183594 141.757812 L 279.699219 130.308594 L 272.445312 123.015625 L 227.421875 123.015625 L 220.167969 130.308594 Z M 294.574219 150.296875 C 296.929688 147.941406 300.71875 147.941406 303.078125 150.296875 C 305.433594 152.652344 305.433594 156.484375 303.078125 158.800781 C 300.71875 161.160156 296.929688 161.160156 294.574219 158.800781 C 292.214844 156.484375 292.214844 152.652344 294.574219 150.296875 Z M 294.574219 150.296875 " fill-opacity="1" fill-rule="evenodd"/><path fill="#004aad" d="M 193.257812 109.617188 L 202.902344 109.617188 L 218.734375 93.785156 L 230.328125 93.785156 C 231.984375 100.265625 237.839844 105.050781 244.796875 105.050781 C 253.007812 105.050781 259.707031 98.386719 259.707031 90.140625 C 259.707031 81.929688 253.007812 75.269531 244.796875 75.269531 C 237.839844 75.269531 231.984375 80.054688 230.328125 86.496094 L 215.714844 86.496094 L 208.425781 93.785156 L 199.882812 102.363281 L 193.257812 102.363281 Z M 238.761719 90.140625 C 238.761719 86.828125 241.484375 84.140625 244.796875 84.140625 C 248.109375 84.140625 250.835938 86.828125 250.835938 90.140625 C 250.835938 93.492188 248.109375 96.179688 244.796875 96.179688 C 241.484375 96.179688 238.761719 93.492188 238.761719 90.140625 Z M 238.761719 90.140625 " fill-opacity="1" fill-rule="evenodd"/><path fill="#38b6ff" d="M 203.96875 211.742188 L 193.257812 211.742188 L 193.257812 219.03125 L 211.222656 219.03125 L 220.167969 227.941406 L 227.421875 235.195312 L 272.445312 235.195312 L 291.183594 216.457031 C 296.890625 219.878906 304.4375 219.144531 309.371094 214.210938 C 315.1875 208.390625 315.1875 198.96875 309.371094 193.152344 C 303.554688 187.335938 294.09375 187.335938 288.277344 193.152344 C 283.34375 198.085938 282.605469 205.59375 286.03125 211.300781 L 269.425781 227.941406 L 230.441406 227.941406 L 214.242188 211.742188 Z M 303.078125 207.949219 C 300.71875 210.308594 296.929688 210.308594 294.574219 207.949219 C 292.214844 205.59375 292.214844 201.765625 294.574219 199.410156 C 296.929688 197.054688 300.71875 197.054688 303.078125 199.410156 C 305.433594 201.765625 305.433594 205.59375 303.078125 207.949219 Z M 303.078125 207.949219 " fill-opacity="1" fill-rule="evenodd"/><path fill="#004aad" d="M 193.257812 182.769531 L 243.398438 182.769531 C 245.019531 189.210938 250.871094 193.996094 257.832031 193.996094 C 266.078125 193.996094 272.742188 187.335938 272.742188 179.125 C 272.742188 170.878906 266.078125 164.214844 257.832031 164.214844 C 250.871094 164.214844 245.019531 169 243.398438 175.480469 L 193.257812 175.480469 Z M 251.828125 179.125 C 251.828125 175.773438 254.515625 173.085938 257.832031 173.085938 C 261.179688 173.085938 263.867188 175.773438 263.867188 179.125 C 263.867188 182.4375 261.179688 185.125 257.832031 185.125 C 254.515625 185.125 251.828125 182.4375 251.828125 179.125 Z M 251.828125 179.125 " fill-opacity="1" fill-rule="evenodd"/><path fill="#004aad" d="M 210.15625 255.882812 L 202.902344 248.59375 L 193.257812 248.59375 L 193.257812 255.882812 L 199.882812 255.882812 L 215.714844 271.714844 L 230.328125 271.714844 C 231.984375 278.195312 237.839844 282.980469 244.796875 282.980469 C 253.007812 282.980469 259.707031 276.316406 259.707031 268.070312 C 259.707031 259.859375 253.007812 253.195312 244.796875 253.195312 C 237.839844 253.195312 231.984375 257.984375 230.328125 264.425781 L 218.734375 264.425781 Z M 244.796875 274.109375 C 241.484375 274.109375 238.761719 271.421875 238.761719 268.070312 C 238.761719 264.757812 241.484375 262.070312 244.796875 262.070312 C 248.109375 262.070312 250.835938 264.757812 250.835938 268.070312 C 250.835938 271.421875 248.109375 274.109375 244.796875 274.109375 Z M 244.796875 274.109375 " fill-opacity="1" fill-rule="evenodd"/></svg>